<svg id="icon" height="512" viewBox="0 0 500 500" width="512" xmlns="http://www.w3.org/2000/svg"><path d="m176.556 433.325 61.996-78.943 90.71 43.841 148.964-296.263-115.652 34.953-320.42 144.615 90.722 23.269z" fill="#fff"/><path d="m173.806 235.665a74.529 74.529 0 0 1 7.382 3.062 21.406 21.406 0 0 1 .961 38.138l-41.508 22.444c-1.843 1-3.766 2.065-4.884 3.837a12.4 12.4 0 0 0 -1.431 5l.118 1.264 42.112 123.913 61.744-78.623a41.6 41.6 0 0 0 -7.254-6.024 409.389 409.389 0 0 0 -53.759-31.213c16.607-18.328 36.784-32.977 55.624-49 3.48-2.959 6.968-6.027 9.405-9.89 5.64-8.943 4.7-20.556 1.776-30.716a79.056 79.056 0 0 0 -16.12-30.2l-74.242 33.513a90.365 90.365 0 0 1 20.076 4.495z" fill="#c4c4d6"/><path d="m362.574 136.913-48.687 21.973a18.121 18.121 0 0 0 .373 1.921 23.819 23.819 0 0 0 6.573 10.763 37.541 37.541 0 0 0 39.488 8.107l-3.168-.442a943.647 943.647 0 0 0 117.35-76.15z" fill="#c4c4d6"/><path d="m240.341 247.025a4 4 0 0 0 -5.426-1.6l-101.448 55.26c-26.382-6.245-52.748-12.567-79.175-18.62 34.891-16.6 69.527-33.783 105.191-48.713 4.718-2.023 12.23-3.382 14.638-8.2a3.144 3.144 0 0 0 -1.849-4.544c-4.823-1.547-10.129 2.246-14.509 4.132-46.683 19.771-94.7 43.724-140.546 65.8-3.782 1.73-2.433 7.709 1.733 7.608.61.789 22.585-10.71 23.548-10.856 26.387 7.2 53.306 12.855 79.9 19.429l-51.161 27.863c-4.563 2.58-.834 9.475 3.826 7.025l163.679-89.158a4 4 0 0 0 1.599-5.426z" fill="#4c373c"/><path d="m52.609 346.38c-5.07-2.025-8.209 5.463-3.212 7.659 5.07 2.024 8.209-5.464 3.212-7.659z" fill="#4c373c"/><path d="m383.632 119.838c-.263-28.755-17.242-60.53-46.379-68.452-29.792-4.951-59.159 19.237-71.107 44.955-10.674-15.323-21.692-32.668-38.7-41.56-44.286-21.022-83.387 5.548-96.089 49.747-9.721 30.092 6.222 60.787 27.6 81.481 26.554 25.7 53.863 50.008 73.821 81.544 1.178 1.86 3.952 2.935 5.932 1.555q46.933-32.686 93.875-65.363c35.044-21.667 52.101-40.688 51.047-83.907z" fill="#ff668b"/><path d="m383.632 119.838a81.007 81.007 0 0 0 -15.238-46.238 70.465 70.465 0 0 1 1.449 7.128 73.827 73.827 0 0 1 -15.088 56.155c-5.682 7.131-12.643 13.124-19.662 18.943-24.871 20.616-48.979 43.265-75.513 61.869a28.126 28.126 0 0 1 -34.031-1.2c-19.815-16.325-39.749-30.095-61.322-39.256-6.954-2.955-14.008-6.164-20.844-9.758a116.77 116.77 0 0 0 15.576 18.528c26.554 25.7 53.863 50.008 73.821 81.544 1.178 1.86 3.952 2.935 5.932 1.555q46.933-32.686 93.875-65.363c35.042-21.667 52.099-40.688 51.045-83.907z" fill="#c6305f"/><path d="m478.428 97-.389.254c-31.538 9.946-63.129 19.828-94.5 30.294q-.153 4.028-.565 8.038c23.085-6.99 46.1-14.2 69.133-21.374-95.421 63.795-193.207 126.988-280.438 201.188-2.142 19.454.6 39.825.521 59.519q.414 17.571.825 35.144c-10.487-29.887-19.651-60.207-29.058-90.443-1.607-5.13-9.61-2.982-8.091 2.231q13.234 45.125 28.734 89.559 2.6 7.411 5.343 14.769c1.006 2.714 1.72 5.424 3.734 7.086.858 3.683 5.645 4.116 7.94 1.13q29.5-38.441 59.064-76.826 17 9.042 34.131 17.817l-11.65 18.073c-2.8 4.383 3.843 8.736 6.724 4.335l35.614-55.241c2.766-4.444-3.787-8.72-6.724-4.335l-19.109 29.641c-29.077-14.81-57.781-30.318-86.277-46.215-4.878-2.721-9.231 4.716-4.377 7.488q21.789 12.443 43.908 24.3-25.425 33.288-50.995 66.448c-1.1-31.625-.857-71.258-2.594-102.491 92.984-72.009 189.664-139.039 288.46-202.814-49.457 90.925-96.373 183.26-140.032 277.115q-12.528-6.031-24.989-12.195c-5.132-2.543-9.662 5.152-4.507 7.711q13.207 6.555 26.494 12.946l-23.1 50.756a4 4 0 1 0 7.281 3.314l40.513-89c42.432-88.174 86.589-175.562 134.193-261.043 3.63-3.379-.635-10.171-5.217-7.179z" fill="#4c373c"/><path d="m201.248 75.884c-6.873-3.529-15.5-2.351-22.141 1.6s-11.524 10.316-15.271 17.071c-6.516 11.751-11.724 34.23-1.662 39.1a10.16 10.16 0 0 0 10.275-.573c2.679-1.954 4.186-5.078 5.881-7.929a51.02 51.02 0 0 1 15.333-16.208c5.822-3.914 12.9-7.108 15.618-13.575 2.994-7.123-1.161-15.957-8.033-19.486z" fill="#ffeef3"/><path d="m232.785 271.553a4 4 0 0 1 -3.384-1.861c-17.116-27.044-39.346-48.331-62.881-70.869q-5.174-4.954-10.343-9.94c-26.823-25.963-37.529-57.927-28.646-85.521 7.315-25.4 23.1-45.19 43.313-54.311 18.065-8.152 38.23-7.42 58.318 2.116l.138.069c15.85 8.287 26.779 23.533 36.351 37.364 14-24.532 42.468-46.115 72.258-41.16.132.022.264.051.394.086 32.029 8.708 49.06 42.95 49.329 72.275.618 25.369-4.811 43.562-17.605 58.929a4 4 0 0 1 -6.149-5.119c11.465-13.77 16.325-30.324 15.755-53.676-.233-25.671-15.465-56.96-43.233-64.635-27.251-4.4-55.248 18.237-66.625 42.727a4 4 0 0 1 -6.91.6q-1.312-1.882-2.635-3.8c-9.766-14.134-19.862-28.747-34.567-36.464-17.877-8.466-35.694-9.163-51.527-2.018-18.086 8.161-32.276 26.126-38.932 49.29l-.039.125c-7.96 24.639 1.976 53.565 26.578 77.377q5.143 4.981 10.31 9.91c22.847 21.878 46.471 44.5 64.109 72.369a4 4 0 0 1 -3.376 6.139z" fill="#4c373c"/></svg>